<svg width="24" height="24" viewBox="0 0 24 24" fill="none" xmlns="http://www.w3.org/2000/svg">
<path d="M2.98966 9.35789C2.98966 9.77583 2.63442 10.124 2.20806 10.124H1.78171C1.35535 10.124 0.999939 9.77583 0.999939 9.35789C0.999939 8.93996 1.35535 8.59174 1.78171 8.59174H2.20806C2.63442 8.59174 2.98966 8.93996 2.98966 9.35789ZM22.2468 9.14893C24.0942 12.98 22.3888 17.5773 18.3384 19.3883C14.4303 21.1297 9.74035 19.458 7.96381 15.6269C7.60857 14.8607 7.39539 14.0249 7.32427 13.189H5.76091C5.33455 13.189 4.97931 12.8406 4.97931 12.4227C4.97931 12.0047 5.33455 11.6565 5.76091 11.6565H8.03492C8.46128 11.6565 8.81652 11.3083 8.81652 10.8904C8.81652 10.4724 8.46128 10.124 8.03492 10.124H4.41089C3.98454 10.124 3.62913 9.77583 3.62913 9.35789C3.62913 8.93996 3.98454 8.59174 4.41089 8.59174H9.45606C9.88241 8.59174 10.2377 8.24335 10.2377 7.82542C10.2377 7.40748 9.88241 7.05926 9.45606 7.05926H7.39539C6.75586 7.05926 6.18727 6.57162 6.18727 5.87517C6.18727 5.24827 6.68474 4.69092 7.39539 4.69092H15.425C18.2675 4.83034 20.9677 6.43236 22.2468 9.14893ZM13.2663 8.38057C11.0194 9.39196 10.0342 11.9974 11.0659 14.1999C12.0977 16.4024 14.7556 17.3681 17.0025 16.3567C19.2496 15.3453 20.2347 12.7399 19.2029 10.5374C18.1711 8.33493 15.5132 7.36917 13.2663 8.38057ZM16.8462 9.84549L18.2674 12.2138C18.3385 12.3531 18.3385 12.4228 18.2674 12.5621L16.8462 14.9304C16.7751 15.0697 16.6331 15.0697 16.562 15.0697H13.7906C13.6486 15.0697 13.5775 14.9999 13.5065 14.9304L12.0852 12.5621C12.0143 12.4228 12.0143 12.3531 12.0852 12.2138L13.5065 9.84549C13.5775 9.70623 13.7197 9.70623 13.7906 9.70623H16.562C16.7042 9.63652 16.7751 9.70623 16.8462 9.84549Z" fill="#B9BBBE"/>
</svg>
